<svg width="50" height="87" viewBox="0 0 50 87" fill="none" xmlns="http://www.w3.org/2000/svg">
<path d="M22.1307 86.3636V1.78814e-06H27.6634V86.3636H22.1307ZM40.7528 25.9091C40.348 22.4905 38.7062 19.8367 35.8274 17.9474C32.9486 16.0582 29.4176 15.1136 25.2344 15.1136C22.1757 15.1136 19.4993 15.6084 17.2053 16.598C14.9337 17.5876 13.157 18.9483 11.875 20.68C10.6155 22.4118 9.9858 24.3797 9.9858 26.5838C9.9858 28.428 10.4244 30.0136 11.3015 31.3406C12.2011 32.645 13.3481 33.7358 14.7425 34.6129C16.137 35.4676 17.5988 36.176 19.1282 36.7383C20.6576 37.2781 22.0632 37.7166 23.3452 38.054L30.3622 39.9432C32.1615 40.4155 34.1631 41.0677 36.3672 41.8999C38.5937 42.732 40.7191 43.8678 42.7433 45.3072C44.7899 46.7241 46.4767 48.5458 47.8036 50.7724C49.1306 52.9989 49.794 55.7315 49.794 58.9702C49.794 62.7036 48.8157 66.0772 46.859 69.0909C44.9248 72.1046 42.091 74.4999 38.3576 76.2766C34.6467 78.0534 30.1373 78.9418 24.8295 78.9418C19.8816 78.9418 15.5972 78.1434 11.9762 76.5465C8.37772 74.9497 5.54392 72.7231 3.47479 69.8668C1.42815 67.0105 0.269886 63.6932 -5.32717e-07 59.9148H8.63636C8.86127 62.5237 9.7384 64.6828 11.2678 66.3921C12.8196 68.0788 14.7763 69.3383 17.1378 70.1705C19.5218 70.9801 22.0857 71.3849 24.8295 71.3849C28.0232 71.3849 30.8907 70.8677 33.4322 69.8331C35.9736 68.776 37.9865 67.3142 39.4709 65.4474C40.9553 63.5582 41.6974 61.3542 41.6974 58.8352C41.6974 56.5412 41.0565 54.6745 39.7745 53.2351C38.4925 51.7957 36.8058 50.6262 34.7141 49.7266C32.6225 48.8269 30.3622 48.0398 27.9332 47.3651L19.4318 44.9361C14.0341 43.3842 9.76089 41.1689 6.61222 38.2901C3.46354 35.4113 1.8892 31.6442 1.8892 26.9886C1.8892 23.1203 2.93501 19.7467 5.02663 16.8679C7.14074 13.9666 9.97455 11.7176 13.5281 10.1207C17.104 8.50142 21.0961 7.69177 25.5043 7.69177C29.9574 7.69177 33.9157 8.49018 37.3793 10.087C40.8428 11.6613 43.5866 13.8204 45.6108 16.5643C47.6574 19.3081 48.737 22.4231 48.8494 25.9091H40.7528Z" fill="white"/>
</svg>
