<svg width="100" height="100" viewBox="0 0 100 100" fill="none" xmlns="http://www.w3.org/2000/svg">
<mask id="path-1-outside-1_4_83" maskUnits="userSpaceOnUse" x="2" y="2" width="96" height="96" fill="black">
<rect fill="white" x="2" y="2" width="96" height="96"/>
<path d="M42.7539 8.20072C45.344 1.26637 55.153 1.26649 57.7432 8.20072L60.2061 14.7964C61.4231 18.0549 65.1478 19.5988 68.3135 18.1578L74.7725 15.2163C81.5375 12.1358 88.4798 19.1418 85.3379 25.8785L82.5029 31.9585C81.0158 35.1474 82.5793 38.9257 85.8848 40.1314L92.2383 42.4488C99.2506 45.0059 99.2506 54.9229 92.2383 57.48L85.8848 59.7974C82.5793 61.0031 81.0158 64.7814 82.5029 67.9703L85.3379 74.0503C88.4797 80.7869 81.5374 87.7929 74.7725 84.7124L68.3135 81.771C65.1478 80.3299 61.4231 81.8739 60.2061 85.1324L57.7432 91.7281C55.153 98.6624 45.344 98.6624 42.7539 91.7281L40.2901 85.1324C39.0729 81.8739 35.3493 80.3297 32.1836 81.771L25.7246 84.7124C18.9598 87.7925 12.0176 80.7868 15.1592 74.0503L17.9942 67.9703C19.4815 64.7813 17.9182 61.0029 14.6123 59.7974L8.25881 57.48C1.24707 54.9227 1.24706 45.0061 8.25881 42.4488L14.6123 40.1314C17.9182 38.9258 19.4815 35.1475 17.9942 31.9585L15.1592 25.8785C12.0175 19.142 18.9598 12.1363 25.7246 15.2163L32.1836 18.1578C35.3492 19.599 39.0729 18.0548 40.2901 14.7964L42.7539 8.20072ZM77.669 84.441C77.7591 84.4469 77.8489 84.4512 77.9385 84.4536C78.0283 84.4561 78.1179 84.4567 78.207 84.4556C78.1182 84.4567 78.029 84.4561 77.9395 84.4536C77.8496 84.4512 77.7594 84.4469 77.669 84.441ZM75.1865 83.8023C75.3175 83.8619 75.449 83.9162 75.5801 83.9673C75.4493 83.9164 75.3182 83.8618 75.1875 83.8023L68.7285 80.8609L75.1865 83.8023ZM15.7969 75.1255C15.7874 75.1521 15.7787 75.179 15.7695 75.2056C15.7787 75.179 15.7874 75.1521 15.7969 75.1255ZM19.041 68.0679C18.9967 68.1766 18.9506 68.2854 18.9004 68.3931L16.0654 74.4722L15.9424 74.7495C15.9341 74.7693 15.927 74.7894 15.919 74.8091C15.9649 74.6972 16.0133 74.585 16.0654 74.4732L18.9014 68.3931C18.9516 68.2855 18.9968 68.1766 19.041 68.0679ZM49.9102 29.6792C38.6974 29.6793 29.6076 38.7568 29.6074 49.9546C29.6074 61.1526 38.6973 70.2309 49.9102 70.231C61.1231 70.231 70.2129 61.1526 70.2129 49.9546C70.2127 38.7568 61.123 29.6792 49.9102 29.6792ZM19.3945 66.9341C19.3404 67.1795 19.2725 67.4239 19.1904 67.6665C19.2725 67.4238 19.3404 67.1795 19.3945 66.9341ZM19.4141 66.8453C19.4263 66.786 19.4376 66.7268 19.4483 66.6675C19.4376 66.7268 19.4263 66.7861 19.4141 66.8453ZM19.5313 64.816C19.5526 65.0531 19.5618 65.2919 19.5586 65.5318H19.5596C19.5628 65.2919 19.5528 65.053 19.5313 64.816ZM84.8438 59.1558C84.6767 59.2379 84.5152 59.3277 84.3574 59.4214C84.5185 59.3258 84.6837 59.2345 84.8545 59.1509L84.8438 59.1558ZM18.9004 31.5357C19.1715 32.117 19.3558 32.7152 19.459 33.316H19.46C19.3568 32.7151 19.1725 32.117 18.9014 31.5357H18.9004ZM75.5801 15.9605C75.4489 16.0117 75.3176 16.0668 75.1865 16.1265L68.7285 19.0679L68.458 19.1822C68.5486 19.1462 68.639 19.1087 68.7285 19.0679L75.1875 16.1265C75.3184 16.0669 75.4492 16.0115 75.5801 15.9605ZM75.7422 15.899C75.7034 15.9131 75.6648 15.928 75.626 15.9429C75.7572 15.8928 75.8885 15.8471 76.0195 15.8052L75.7422 15.899ZM77.668 15.4878C77.6371 15.4899 77.6062 15.4931 77.5752 15.4956C77.6971 15.4856 77.8186 15.4785 77.9395 15.4751H77.9385C77.8486 15.4776 77.7584 15.4817 77.668 15.4878ZM19.0586 68.024C19.0997 67.9211 19.138 67.818 19.1738 67.7144C19.138 67.818 19.0997 67.9212 19.0586 68.024Z"/>
</mask>
<path d="M42.7539 8.20072C45.344 1.26637 55.153 1.26649 57.7432 8.20072L60.2061 14.7964C61.4231 18.0549 65.1478 19.5988 68.3135 18.1578L74.7725 15.2163C81.5375 12.1358 88.4798 19.1418 85.3379 25.8785L82.5029 31.9585C81.0158 35.1474 82.5793 38.9257 85.8848 40.1314L92.2383 42.4488C99.2506 45.0059 99.2506 54.9229 92.2383 57.48L85.8848 59.7974C82.5793 61.0031 81.0158 64.7814 82.5029 67.9703L85.3379 74.0503C88.4797 80.7869 81.5374 87.7929 74.7725 84.7124L68.3135 81.771C65.1478 80.3299 61.4231 81.8739 60.2061 85.1324L57.7432 91.7281C55.153 98.6624 45.344 98.6624 42.7539 91.7281L40.2901 85.1324C39.0729 81.8739 35.3493 80.3297 32.1836 81.771L25.7246 84.7124C18.9598 87.7925 12.0176 80.7868 15.1592 74.0503L17.9942 67.9703C19.4815 64.7813 17.9182 61.0029 14.6123 59.7974L8.25881 57.48C1.24707 54.9227 1.24706 45.0061 8.25881 42.4488L14.6123 40.1314C17.9182 38.9258 19.4815 35.1475 17.9942 31.9585L15.1592 25.8785C12.0175 19.142 18.9598 12.1363 25.7246 15.2163L32.1836 18.1578C35.3492 19.599 39.0729 18.0548 40.2901 14.7964L42.7539 8.20072ZM77.669 84.441C77.7591 84.4469 77.8489 84.4512 77.9385 84.4536C78.0283 84.4561 78.1179 84.4567 78.207 84.4556C78.1182 84.4567 78.029 84.4561 77.9395 84.4536C77.8496 84.4512 77.7594 84.4469 77.669 84.441ZM75.1865 83.8023C75.3175 83.8619 75.449 83.9162 75.5801 83.9673C75.4493 83.9164 75.3182 83.8618 75.1875 83.8023L68.7285 80.8609L75.1865 83.8023ZM15.7969 75.1255C15.7874 75.1521 15.7787 75.179 15.7695 75.2056C15.7787 75.179 15.7874 75.1521 15.7969 75.1255ZM19.041 68.0679C18.9967 68.1766 18.9506 68.2854 18.9004 68.3931L16.0654 74.4722L15.9424 74.7495C15.9341 74.7693 15.927 74.7894 15.919 74.8091C15.9649 74.6972 16.0133 74.585 16.0654 74.4732L18.9014 68.3931C18.9516 68.2855 18.9968 68.1766 19.041 68.0679ZM49.9102 29.6792C38.6974 29.6793 29.6076 38.7568 29.6074 49.9546C29.6074 61.1526 38.6973 70.2309 49.9102 70.231C61.1231 70.231 70.2129 61.1526 70.2129 49.9546C70.2127 38.7568 61.123 29.6792 49.9102 29.6792ZM19.3945 66.9341C19.3404 67.1795 19.2725 67.4239 19.1904 67.6665C19.2725 67.4238 19.3404 67.1795 19.3945 66.9341ZM19.4141 66.8453C19.4263 66.786 19.4376 66.7268 19.4483 66.6675C19.4376 66.7268 19.4263 66.7861 19.4141 66.8453ZM19.5313 64.816C19.5526 65.0531 19.5618 65.2919 19.5586 65.5318H19.5596C19.5628 65.2919 19.5528 65.053 19.5313 64.816ZM84.8438 59.1558C84.6767 59.2379 84.5152 59.3277 84.3574 59.4214C84.5185 59.3258 84.6837 59.2345 84.8545 59.1509L84.8438 59.1558ZM18.9004 31.5357C19.1715 32.117 19.3558 32.7152 19.459 33.316H19.46C19.3568 32.7151 19.1725 32.117 18.9014 31.5357H18.9004ZM75.5801 15.9605C75.4489 16.0117 75.3176 16.0668 75.1865 16.1265L68.7285 19.0679L68.458 19.1822C68.5486 19.1462 68.639 19.1087 68.7285 19.0679L75.1875 16.1265C75.3184 16.0669 75.4492 16.0115 75.5801 15.9605ZM75.7422 15.899C75.7034 15.9131 75.6648 15.928 75.626 15.9429C75.7572 15.8928 75.8885 15.8471 76.0195 15.8052L75.7422 15.899ZM77.668 15.4878C77.6371 15.4899 77.6062 15.4931 77.5752 15.4956C77.6971 15.4856 77.8186 15.4785 77.9395 15.4751H77.9385C77.8486 15.4776 77.7584 15.4817 77.668 15.4878ZM19.0586 68.024C19.0997 67.9211 19.138 67.818 19.1738 67.7144C19.138 67.818 19.0997 67.9212 19.0586 68.024Z" fill="#F7F7F7"/>
<path d="M42.7539 8.20072L43.2223 8.37569L43.2223 8.37567L42.7539 8.20072ZM57.7432 8.20072L58.2116 8.02581L58.2116 8.02576L57.7432 8.20072ZM60.2061 14.7964L59.7377 14.9713L59.7377 14.9714L60.2061 14.7964ZM68.3135 18.1578L68.5207 18.6128L68.5207 18.6128L68.3135 18.1578ZM74.7725 15.2163L74.5653 14.7613L74.5653 14.7613L74.7725 15.2163ZM85.3379 25.8785L84.8848 25.6671L84.8848 25.6672L85.3379 25.8785ZM82.5029 31.9585L82.9561 32.1699L82.9561 32.1698L82.5029 31.9585ZM85.8848 40.1314L85.7134 40.6011H85.7135L85.8848 40.1314ZM92.2383 42.4488L92.067 42.9185L92.067 42.9185L92.2383 42.4488ZM92.2383 57.48L92.067 57.0103L92.067 57.0103L92.2383 57.48ZM85.8848 59.7974L85.7135 59.3277V59.3277L85.8848 59.7974ZM82.5029 67.9703L82.9561 67.759L82.9561 67.7589L82.5029 67.9703ZM85.3379 74.0503L84.8848 74.2616L84.8848 74.2617L85.3379 74.0503ZM74.7725 84.7124L74.5653 85.1675L74.5653 85.1675L74.7725 84.7124ZM68.3135 81.771L68.5207 81.316L68.5207 81.316L68.3135 81.771ZM60.2061 85.1324L59.7377 84.9574L59.7377 84.9575L60.2061 85.1324ZM57.7432 91.7281L58.2116 91.903L58.2116 91.903L57.7432 91.7281ZM42.7539 91.7281L43.2223 91.5531L43.2223 91.5531L42.7539 91.7281ZM40.2901 85.1324L39.8217 85.3073H39.8217L40.2901 85.1324ZM32.1836 81.771L31.9764 81.316L31.9764 81.316L32.1836 81.771ZM25.7246 84.7124L25.9318 85.1675L25.9318 85.1675L25.7246 84.7124ZM15.1592 74.0503L15.6123 74.2617L15.6124 74.2616L15.1592 74.0503ZM17.9942 67.9703L17.541 67.7589L17.541 67.759L17.9942 67.9703ZM14.6123 59.7974L14.441 60.2671L14.441 60.2671L14.6123 59.7974ZM8.25881 57.48L8.43014 57.0103L8.43013 57.0103L8.25881 57.48ZM8.25881 42.4488L8.43013 42.9185L8.43014 42.9185L8.25881 42.4488ZM14.6123 40.1314L14.441 39.6616L14.441 39.6617L14.6123 40.1314ZM17.9942 31.9585L17.541 32.1698L17.541 32.1699L17.9942 31.9585ZM15.1592 25.8785L15.6124 25.6672L15.6123 25.6671L15.1592 25.8785ZM25.7246 15.2163L25.9318 14.7613L25.9318 14.7613L25.7246 15.2163ZM32.1836 18.1578L31.9764 18.6128L31.9764 18.6128L32.1836 18.1578ZM40.2901 14.7964L40.7584 14.9714V14.9714L40.2901 14.7964ZM77.669 84.441L77.7017 83.942L77.6361 84.9399L77.669 84.441ZM77.9385 84.4537L77.9523 83.9538H77.9523L77.9385 84.4537ZM78.207 84.4556L78.2132 84.9556L78.2009 83.9556L78.207 84.4556ZM77.9395 84.4537L77.9257 84.9535H77.9257L77.9395 84.4537ZM75.1865 83.8023L74.9793 84.2573L74.9793 84.2573L75.1865 83.8023ZM75.5801 83.9673L75.3987 84.4332L75.7617 83.5015L75.5801 83.9673ZM75.1875 83.8023L74.9803 84.2573L74.9803 84.2573L75.1875 83.8023ZM68.7285 80.8609L68.9358 80.4058L68.5213 81.3159L68.7285 80.8609ZM15.7969 75.1255L16.2677 75.2939L15.3262 74.9568L15.7969 75.1255ZM15.7695 75.2056L15.2968 75.0427L16.2421 75.3689L15.7695 75.2056ZM19.041 68.0679L19.5041 68.2565L18.578 67.8792L19.041 68.0679ZM18.9004 68.3931L18.4473 68.1818L18.4473 68.1818L18.9004 68.3931ZM16.0654 74.4722L15.6122 74.2608L15.6084 74.2694L16.0654 74.4722ZM15.9424 74.7495L15.4853 74.5467L15.4813 74.5561L15.9424 74.7495ZM15.919 74.8091L15.4563 74.6196L16.3815 74.9989L15.919 74.8091ZM16.0654 74.4732L15.6123 74.2618L15.6123 74.2619L16.0654 74.4732ZM18.9014 68.3931L19.3545 68.6045L19.3545 68.6044L18.9014 68.3931ZM49.9102 29.6792V29.1792H49.9102L49.9102 29.6792ZM29.6074 49.9546L29.1074 49.9546V49.9546H29.6074ZM49.9102 70.231L49.9102 70.731H49.9102V70.231ZM70.2129 49.9546H70.7129V49.9546L70.2129 49.9546ZM19.3945 66.9341L19.8828 67.0418L18.9063 66.8263L19.3945 66.9341ZM19.1904 67.6665L18.7168 67.5064L19.6641 67.8268L19.1904 67.6665ZM19.4141 66.8452L18.9244 66.744L19.9037 66.9466L19.4141 66.8452ZM19.4483 66.6675L19.9404 66.756L18.9562 66.5789L19.4483 66.6675ZM19.5313 64.816L20.0292 64.7707L19.0333 64.8607L19.5313 64.816ZM19.5586 65.5318L19.0587 65.5251L19.0519 66.0318H19.5586V65.5318ZM19.5596 65.5318V66.0318H20.053L20.0595 65.5385L19.5596 65.5318ZM84.8438 59.1558L84.6369 58.7006L84.63 58.7037L84.6233 58.707L84.8438 59.1558ZM84.8545 59.1509L85.0742 59.6001L84.6476 58.6957L84.8545 59.1509ZM18.9004 31.5357V31.0357H18.1155L18.4473 31.747L18.9004 31.5357ZM19.459 33.316L18.9662 33.4006L19.0375 33.816H19.459V33.316ZM19.46 33.316V33.816H20.0531L19.9528 33.2313L19.46 33.316ZM18.9014 31.5357L19.3545 31.3243L19.2199 31.0357H18.9014V31.5357ZM75.5801 15.9605L75.7619 16.4262L75.3987 15.4946L75.5801 15.9605ZM75.1865 16.1265L74.9793 15.6715L74.9793 15.6715L75.1865 16.1265ZM68.7285 19.0679L68.9357 19.523L68.9358 19.5229L68.7285 19.0679ZM68.458 19.1822L68.2635 18.7216L68.6428 19.6468L68.458 19.1822ZM75.1875 16.1265L74.9803 15.6715L74.9803 15.6715L75.1875 16.1265ZM75.7422 15.899L75.582 15.4252L75.5714 15.4291L75.7422 15.899ZM75.626 15.9429L75.4472 15.476L75.8044 16.41L75.626 15.9429ZM76.0195 15.8052L76.1797 16.2789L75.8675 15.3289L76.0195 15.8052ZM77.668 15.4878L77.7019 15.9867L77.7019 15.9867L77.668 15.4878ZM77.5752 15.4956L77.5342 14.9973L77.6161 15.994L77.5752 15.4956ZM77.9395 15.4751L77.9532 15.9749L77.9395 14.9751V15.4751ZM77.9385 15.4751V14.9749L77.9246 14.9753L77.9385 15.4751ZM19.0586 68.024L18.5943 67.8385L19.5229 68.2095L19.0586 68.024ZM19.1738 67.7144L19.6463 67.8779L18.7014 67.5508L19.1738 67.7144ZM42.7539 8.20072L43.2223 8.37567C45.6505 1.87474 54.8465 1.87481 57.2748 8.37568L57.7432 8.20072L58.2116 8.02576C55.4595 0.658161 45.0375 0.657995 42.2855 8.02577L42.7539 8.20072ZM57.7432 8.20072L57.2748 8.37563L59.7377 14.9713L60.2061 14.7964L60.6745 14.6215L58.2116 8.02581L57.7432 8.20072ZM60.2061 14.7964L59.7377 14.9714C61.0562 18.5014 65.0912 20.174 68.5207 18.6128L68.3135 18.1578L68.1063 17.7027C65.2044 19.0237 61.7901 17.6083 60.6745 14.6215L60.2061 14.7964ZM68.3135 18.1578L68.5207 18.6128L74.9797 15.6714L74.7725 15.2163L74.5653 14.7613L68.1063 17.7027L68.3135 18.1578ZM74.7725 15.2163L74.9797 15.6714C81.3218 12.7834 87.8303 19.3515 84.8848 25.6671L85.3379 25.8785L85.791 26.0898C89.1293 18.9321 81.7531 11.4882 74.5653 14.7613L74.7725 15.2163ZM85.3379 25.8785L84.8848 25.6672L82.0498 31.7472L82.5029 31.9585L82.9561 32.1698L85.7911 26.0897L85.3379 25.8785ZM82.5029 31.9585L82.0498 31.7472C80.4387 35.2018 82.1325 39.295 85.7134 40.6011L85.8848 40.1314L86.0561 39.6617C83.026 38.5564 81.5928 35.093 82.9561 32.1699L82.5029 31.9585ZM85.8848 40.1314L85.7135 40.6011L92.067 42.9185L92.2383 42.4488L92.4096 41.979L86.0561 39.6617L85.8848 40.1314ZM92.2383 42.4488L92.067 42.9185C98.641 45.3158 98.641 54.6129 92.067 57.0103L92.2383 57.48L92.4096 57.9498C99.8601 55.2328 99.8601 44.696 92.4096 41.979L92.2383 42.4488ZM92.2383 57.48L92.067 57.0103L85.7135 59.3277L85.8848 59.7974L86.0561 60.2671L92.4096 57.9497L92.2383 57.48ZM85.8848 59.7974L85.7135 59.3277C82.1325 60.6338 80.4387 64.727 82.0498 68.1816L82.5029 67.9703L82.9561 67.7589C81.5929 64.8358 83.0261 61.3723 86.0561 60.2671L85.8848 59.7974ZM82.5029 67.9703L82.0498 68.1815L84.8848 74.2616L85.3379 74.0503L85.7911 73.839L82.9561 67.759L82.5029 67.9703ZM85.3379 74.0503L84.8848 74.2617C87.8302 80.5773 81.3218 87.1453 74.9797 84.2574L74.7725 84.7124L74.5653 85.1675C81.753 88.4405 89.1292 80.9966 85.791 73.839L85.3379 74.0503ZM74.7725 84.7124L74.9797 84.2574L68.5207 81.316L68.3135 81.771L68.1063 82.2261L74.5653 85.1675L74.7725 84.7124ZM68.3135 81.771L68.5207 81.316C65.0912 79.7548 61.0562 81.4273 59.7377 84.9574L60.2061 85.1324L60.6745 85.3073C61.7901 82.3204 65.2044 80.9051 68.1063 82.2261L68.3135 81.771ZM60.2061 85.1324L59.7377 84.9575L57.2748 91.5532L57.7432 91.7281L58.2116 91.903L60.6745 85.3073L60.2061 85.1324ZM57.7432 91.7281L57.2748 91.5531C54.8465 98.054 45.6505 98.0541 43.2223 91.5531L42.7539 91.7281L42.2855 91.903C45.0375 99.2708 55.4596 99.2707 58.2116 91.903L57.7432 91.7281ZM42.7539 91.7281L43.2223 91.5531L40.7584 84.9574L40.2901 85.1324L39.8217 85.3073L42.2855 91.903L42.7539 91.7281ZM40.2901 85.1324L40.7584 84.9574C39.4398 81.4275 35.4059 79.7546 31.9764 81.316L32.1836 81.771L32.3908 82.2261C35.2926 80.9049 38.7059 82.3204 39.8217 85.3073L40.2901 85.1324ZM32.1836 81.771L31.9764 81.316L25.5174 84.2574L25.7246 84.7124L25.9318 85.1675L32.3908 82.2261L32.1836 81.771ZM25.7246 84.7124L25.5174 84.2574C19.1754 87.145 12.6671 80.5771 15.6123 74.2617L15.1592 74.0503L14.7061 73.839C11.3681 80.9965 18.7442 88.4401 25.9318 85.1675L25.7246 84.7124ZM15.1592 74.0503L15.6124 74.2616L18.4473 68.1815L17.9942 67.9703L17.541 67.759L14.706 73.839L15.1592 74.0503ZM17.9942 67.9703L18.4473 68.1816C20.0586 64.7269 18.365 60.6337 14.7836 59.3277L14.6123 59.7974L14.441 60.2671C17.4714 61.3722 18.9044 64.8356 17.541 67.7589L17.9942 67.9703ZM14.6123 59.7974L14.7837 59.3277L8.43014 57.0103L8.25881 57.48L8.08748 57.9497L14.441 60.2671L14.6123 59.7974ZM8.25881 57.48L8.43013 57.0103C1.85663 54.6128 1.85662 45.316 8.43013 42.9185L8.25881 42.4488L8.08748 41.979C0.637495 44.6962 0.637516 55.2326 8.08748 57.9497L8.25881 57.48ZM8.25881 42.4488L8.43014 42.9185L14.7837 40.6011L14.6123 40.1314L14.441 39.6617L8.08748 41.979L8.25881 42.4488ZM14.6123 40.1314L14.7836 40.6011C18.365 39.2951 20.0586 35.2019 18.4473 31.7472L17.9942 31.9585L17.541 32.1699C18.9044 35.0931 17.4714 38.5566 14.441 39.6616L14.6123 40.1314ZM17.9942 31.9585L18.4473 31.7472L15.6124 25.6672L15.1592 25.8785L14.706 26.0897L17.541 32.1698L17.9942 31.9585ZM15.1592 25.8785L15.6123 25.6671C12.667 19.3517 19.1754 12.7838 25.5174 15.6714L25.7246 15.2163L25.9318 14.7613C18.7442 11.4887 11.368 18.9323 14.7061 26.0898L15.1592 25.8785ZM25.7246 15.2163L25.5174 15.6714L31.9764 18.6128L32.1836 18.1578L32.3908 17.7027L25.9318 14.7613L25.7246 15.2163ZM32.1836 18.1578L31.9764 18.6128C35.4059 20.1742 39.4398 18.5013 40.7584 14.9714L40.2901 14.7964L39.8217 14.6215C38.7059 17.6084 35.2926 19.0238 32.3908 17.7027L32.1836 18.1578ZM40.2901 14.7964L40.7584 14.9714L43.2223 8.37569L42.7539 8.20072L42.2855 8.02575L39.8217 14.6215L40.2901 14.7964ZM77.669 84.441L77.6361 84.9399C77.7322 84.9462 77.8284 84.9508 77.9247 84.9535L77.9385 84.4537L77.9523 83.9538C77.8695 83.9516 77.786 83.9476 77.7018 83.942L77.669 84.441ZM77.9385 84.4537L77.9246 84.9535C78.0216 84.9561 78.1178 84.9567 78.2132 84.9556L78.207 84.4556L78.2009 83.9556C78.1179 83.9567 78.0351 83.9561 77.9523 83.9538L77.9385 84.4537ZM78.207 84.4556L78.2009 83.9556C78.1184 83.9567 78.0358 83.9561 77.9532 83.9538L77.9395 84.4537L77.9257 84.9535C78.0222 84.9561 78.118 84.9567 78.2132 84.9556L78.207 84.4556ZM77.9395 84.4537L77.9532 83.9538C77.87 83.9515 77.7862 83.9476 77.7017 83.942L77.669 84.441L77.6362 84.9399C77.7327 84.9462 77.8292 84.9508 77.9257 84.9535L77.9395 84.4537ZM75.1865 83.8023L74.9793 84.2573C75.1209 84.3218 75.2613 84.3797 75.3985 84.4332L75.5801 83.9673L75.7617 83.5015C75.6367 83.4528 75.5142 83.4021 75.3938 83.3472L75.1865 83.8023ZM75.5801 83.9673L75.7615 83.5014C75.638 83.4533 75.5157 83.4023 75.3947 83.3472L75.1875 83.8023L74.9803 84.2573C75.1208 84.3213 75.2606 84.3795 75.3987 84.4332L75.5801 83.9673ZM75.1875 83.8023L75.3947 83.3472L68.9358 80.4058L68.7285 80.8609L68.5213 81.3159L74.9803 84.2573L75.1875 83.8023ZM68.7285 80.8609L68.5213 81.3159L74.9793 84.2573L75.1865 83.8023L75.3938 83.3473L68.9358 80.4059L68.7285 80.8609ZM15.7969 75.1255L15.3261 74.9572C15.3163 74.9846 15.3007 75.0315 15.2968 75.0427L15.7695 75.2056L16.2423 75.3685C16.2567 75.3265 16.2585 75.3196 16.2677 75.2939L15.7969 75.1255ZM15.7695 75.2056L16.2421 75.3689C16.2575 75.3245 16.258 75.321 16.2676 75.2942L15.7969 75.1255L15.3262 74.9568C15.3167 74.9833 15.3 75.0335 15.297 75.0423L15.7695 75.2056ZM19.041 68.0679L18.578 67.8792C18.5353 67.984 18.4926 68.0845 18.4473 68.1818L18.9004 68.3931L19.3535 68.6044C19.4086 68.4864 19.4581 68.3693 19.5041 68.2566L19.041 68.0679ZM18.9004 68.3931L18.4473 68.1818L15.6123 74.2609L16.0654 74.4722L16.5186 74.6835L19.3536 68.6044L18.9004 68.3931ZM16.0654 74.4722L15.6084 74.2694L15.4854 74.5468L15.9424 74.7495L16.3994 74.9523L16.5225 74.675L16.0654 74.4722ZM15.9424 74.7495L15.4813 74.5561C15.4738 74.5741 15.4674 74.5908 15.4637 74.6005C15.4591 74.6124 15.4576 74.6162 15.4563 74.6196L15.919 74.8091L16.3816 74.9986C16.3884 74.9823 16.3945 74.9662 16.3975 74.9582C16.4014 74.948 16.4027 74.9447 16.4035 74.943L15.9424 74.7495ZM15.919 74.8091L16.3815 74.9989C16.4252 74.8925 16.4704 74.7878 16.5186 74.6845L16.0654 74.4732L15.6123 74.2619C15.5561 74.3823 15.5046 74.5018 15.4564 74.6193L15.919 74.8091ZM16.0654 74.4732L16.5186 74.6845L19.3545 68.6045L18.9014 68.3931L18.4483 68.1817L15.6123 74.2618L16.0654 74.4732ZM18.9014 68.3931L19.3545 68.6044C19.4103 68.4849 19.4594 68.3662 19.5041 68.2565L19.041 68.0679L18.578 67.8793C18.5342 67.9869 18.4928 68.0861 18.4482 68.1818L18.9014 68.3931ZM49.9102 29.6792L49.9102 29.1792C38.4219 29.1793 29.1076 38.48 29.1074 49.9546L29.6074 49.9546L30.1074 49.9546C30.1076 39.0336 38.9729 30.1793 49.9102 30.1792L49.9102 29.6792ZM29.6074 49.9546H29.1074C29.1074 61.4293 38.4218 70.7309 49.9102 70.731L49.9102 70.231L49.9102 69.731C38.9728 69.7309 30.1074 60.8758 30.1074 49.9546H29.6074ZM49.9102 70.231V70.731C61.3987 70.731 70.7129 61.4294 70.7129 49.9546H70.2129H69.7129C69.7129 60.8759 60.8476 69.731 49.9102 69.731V70.231ZM70.2129 49.9546L70.7129 49.9546C70.7127 38.48 61.3985 29.1792 49.9102 29.1792V29.6792V30.1792C60.8475 30.1792 69.7127 39.0335 69.7129 49.9546L70.2129 49.9546ZM19.3945 66.9341L18.9063 66.8263C18.856 67.0541 18.793 67.281 18.7168 67.5063L19.1904 67.6665L19.6641 67.8268C19.752 67.5668 19.8247 67.3049 19.8828 67.0419L19.3945 66.9341ZM19.1904 67.6665L19.6641 67.8267C19.752 67.5668 19.8248 67.305 19.8828 67.0418L19.3945 66.9341L18.9063 66.8264C18.8561 67.0541 18.793 67.2809 18.7168 67.5064L19.1904 67.6665ZM19.4141 66.8452L19.9037 66.9465C19.917 66.8822 19.9291 66.8185 19.9404 66.756L19.4483 66.6675L18.9562 66.579C18.9461 66.6351 18.9356 66.6899 18.9244 66.744L19.4141 66.8452ZM19.4483 66.6675L18.9562 66.5789C18.9461 66.6351 18.9356 66.69 18.9245 66.7439L19.4141 66.8452L19.9037 66.9466C19.9171 66.8821 19.9291 66.8184 19.9404 66.7561L19.4483 66.6675ZM19.5313 64.816L19.0333 64.8607C19.053 65.0808 19.0616 65.3025 19.0587 65.5251L19.5586 65.5318L20.0586 65.5385C20.062 65.2813 20.0521 65.0253 20.0293 64.7712L19.5313 64.816ZM19.5586 65.5318V66.0318H19.5596V65.5318V65.0318H19.5586V65.5318ZM19.5596 65.5318L20.0595 65.5385C20.063 65.2803 20.0523 65.0241 20.0292 64.7707L19.5313 64.816L19.0333 64.8612C19.0534 65.082 19.0626 65.3035 19.0596 65.5251L19.5596 65.5318ZM84.8438 59.1558L84.6233 58.707C84.4412 58.7965 84.2678 58.8931 84.1021 58.9915L84.3574 59.4214L84.6127 59.8513C84.7626 59.7623 84.9121 59.6793 85.0642 59.6046L84.8438 59.1558ZM84.3574 59.4214L84.6127 59.8513C84.765 59.7609 84.9181 59.6764 85.0742 59.6001L84.8545 59.1509L84.6348 58.7018C84.4493 58.7925 84.272 58.8906 84.1021 58.9915L84.3574 59.4214ZM84.8545 59.1509L84.6476 58.6957L84.6369 58.7006L84.8438 59.1558L85.0507 59.611L85.0614 59.6061L84.8545 59.1509ZM18.9004 31.5357L18.4473 31.747C18.6994 32.2877 18.8705 32.8433 18.9662 33.4006L19.459 33.316L19.9518 33.2313C19.8412 32.5871 19.6436 31.9462 19.3535 31.3243L18.9004 31.5357ZM19.459 33.316V33.816H19.46V33.316V32.816H19.459V33.316ZM19.46 33.316L19.9528 33.2313C19.8421 32.587 19.6446 31.9462 19.3545 31.3243L18.9014 31.5357L18.4482 31.747C18.7004 32.2878 18.8715 32.8432 18.9672 33.4006L19.46 33.316ZM18.9014 31.5357V31.0357H18.9004V31.5357V32.0357H18.9014V31.5357ZM75.5801 15.9605L75.3982 15.4947C75.2592 15.549 75.1193 15.6077 74.9793 15.6715L75.1865 16.1265L75.3938 16.5815C75.5158 16.526 75.6387 16.4744 75.7619 16.4262L75.5801 15.9605ZM75.1865 16.1265L74.9793 15.6715L68.5213 18.6129L68.7285 19.0679L68.9358 19.5229L75.3938 16.5815L75.1865 16.1265ZM68.7285 19.0679L68.534 18.6073L68.2635 18.7216L68.458 19.1822L68.6526 19.6428L68.9231 19.5285L68.7285 19.0679ZM68.458 19.1822L68.6428 19.6468C68.7375 19.6091 68.8361 19.5683 68.9357 19.523L68.7285 19.0679L68.5213 18.6129C68.4419 18.649 68.3596 18.6832 68.2733 18.7176L68.458 19.1822ZM68.7285 19.0679L68.9358 19.5229L75.3947 16.5815L75.1875 16.1265L74.9803 15.6715L68.5213 18.6129L68.7285 19.0679ZM75.1875 16.1265L75.3947 16.5815C75.5177 16.5256 75.6399 16.4738 75.7615 16.4264L75.5801 15.9605L75.3987 15.4946C75.2585 15.5492 75.119 15.6083 74.9803 15.6715L75.1875 16.1265ZM75.7422 15.899L75.5714 15.4291C75.5274 15.445 75.4831 15.4622 75.4472 15.476L75.626 15.9429L75.8048 16.4099C75.8466 16.3939 75.8794 16.3811 75.9131 16.3689L75.7422 15.899ZM75.626 15.9429L75.8044 16.41C75.9265 16.3634 76.049 16.3207 76.1716 16.2815L76.0195 15.8052L75.8675 15.3289C75.728 15.3734 75.588 15.4222 75.4476 15.4758L75.626 15.9429ZM76.0195 15.8052L75.8594 15.3315L75.5821 15.4253L75.7422 15.899L75.9023 16.3726L76.1797 16.2789L76.0195 15.8052ZM77.668 15.4878L77.6341 14.989C77.6003 14.9913 77.5501 14.996 77.5342 14.9973L77.5752 15.4956L77.6163 15.994C77.6623 15.9902 77.6739 15.9886 77.7019 15.9867L77.668 15.4878ZM77.5752 15.4956L77.6161 15.994C77.7306 15.9846 77.8428 15.978 77.9532 15.9749L77.9395 15.4751L77.9257 14.9753C77.7943 14.9789 77.6637 14.9867 77.5344 14.9973L77.5752 15.4956ZM77.9395 15.4751V14.9751H77.9385V15.4751V15.9751H77.9395V15.4751ZM77.9385 15.4751L77.9246 14.9753C77.829 14.978 77.7321 14.9823 77.6341 14.989L77.668 15.4878L77.7019 15.9867C77.7848 15.981 77.8682 15.9773 77.9523 15.9749L77.9385 15.4751ZM19.0586 68.024L19.5229 68.2095C19.567 68.0991 19.608 67.9886 19.6463 67.8779L19.1738 67.7144L18.7013 67.5508C18.6679 67.6474 18.6323 67.7432 18.5943 67.8385L19.0586 68.024ZM19.1738 67.7144L18.7014 67.5508C18.6679 67.6474 18.6323 67.7433 18.5943 67.8384L19.0586 68.024L19.5229 68.2095C19.5671 68.099 19.608 67.9885 19.6463 67.878L19.1738 67.7144Z" fill="#8D8D8D" mask="url(#path-1-outside-1_4_83)"/>
</svg>
